<?xml version="1.0" encoding="utf-8" standalone="no"?>
<!DOCTYPE svg PUBLIC "-//W3C//DTD SVG 1.1//EN"
  "http://www.w3.org/Graphics/SVG/1.1/DTD/svg11.dtd">
<svg xmlns:xlink="http://www.w3.org/1999/xlink" width="864pt" height="216pt" viewBox="0 0 864 216" xmlns="http://www.w3.org/2000/svg" version="1.1">
 <metadata>
  <rdf:RDF xmlns:dc="http://purl.org/dc/elements/1.1/" xmlns:cc="http://creativecommons.org/ns#" xmlns:rdf="http://www.w3.org/1999/02/22-rdf-syntax-ns#">
   <cc:Work>
    <dc:type rdf:resource="http://purl.org/dc/dcmitype/StillImage"/>
    <dc:date>2026-01-20T23:01:23.915925</dc:date>
    <dc:format>image/svg+xml</dc:format>
    <dc:creator>
     <cc:Agent>
      <dc:title>Matplotlib v3.9.1.post1, https://matplotlib.org/</dc:title>
     </cc:Agent>
    </dc:creator>
   </cc:Work>
  </rdf:RDF>
 </metadata>
 <defs>
  <style type="text/css">*{stroke-linejoin: round; stroke-linecap: butt}</style>
 </defs>
 <g id="figure_1">
  <g id="patch_1">
   <path d="M 0 216 
L 864 216 
L 864 0 
L 0 0 
L 0 216 
z
" style="fill: none; opacity: 0"/>
  </g>
  <g id="axes_1">
   <g id="LineCollection_1">
    <path d="M 58.291829 105.48 
L 800.555671 105.48 
" clip-path="url(#p41055fef44)" style="fill: none; stroke: #64748b; stroke-width: 2"/>
   </g>
   <g id="LineCollection_2">
    <path d="M 58.291829 105.48 
L 58.291829 60.098182 
" clip-path="url(#p41055fef44)" style="fill: none; stroke-dasharray: 1.5,2.475; stroke-dashoffset: 0; stroke: #64748b; stroke-opacity: 0.5; stroke-width: 1.5"/>
    <path d="M 96.356641 105.48 
L 96.356641 150.861818 
" clip-path="url(#p41055fef44)" style="fill: none; stroke-dasharray: 1.5,2.475; stroke-dashoffset: 0; stroke: #64748b; stroke-opacity: 0.5; stroke-width: 1.5"/>
    <path d="M 175.205181 105.48 
L 175.205181 37.407273 
" clip-path="url(#p41055fef44)" style="fill: none; stroke-dasharray: 1.5,2.475; stroke-dashoffset: 0; stroke: #64748b; stroke-opacity: 0.5; stroke-width: 1.5"/>
    <path d="M 218.707824 105.48 
L 218.707824 173.552727 
" clip-path="url(#p41055fef44)" style="fill: none; stroke-dasharray: 1.5,2.475; stroke-dashoffset: 0; stroke: #64748b; stroke-opacity: 0.5; stroke-width: 1.5"/>
    <path d="M 262.210467 105.48 
L 262.210467 60.098182 
" clip-path="url(#p41055fef44)" style="fill: none; stroke-dasharray: 1.5,2.475; stroke-dashoffset: 0; stroke: #64748b; stroke-opacity: 0.5; stroke-width: 1.5"/>
    <path d="M 800.555671 105.48 
L 800.555671 150.861818 
" clip-path="url(#p41055fef44)" style="fill: none; stroke-dasharray: 1.5,2.475; stroke-dashoffset: 0; stroke: #64748b; stroke-opacity: 0.5; stroke-width: 1.5"/>
   </g>
   <g id="line2d_1">
    <defs>
     <path id="m140a0e1834" d="M 0 5 
C 1.326016 5 2.597899 4.473168 3.535534 3.535534 
C 4.473168 2.597899 5 1.326016 5 0 
C 5 -1.326016 4.473168 -2.597899 3.535534 -3.535534 
C 2.597899 -4.473168 1.326016 -5 0 -5 
C -1.326016 -5 -2.597899 -4.473168 -3.535534 -3.535534 
C -4.473168 -2.597899 -5 -1.326016 -5 0 
C -5 1.326016 -4.473168 2.597899 -3.535534 3.535534 
C -2.597899 4.473168 -1.326016 5 0 5 
z
" style="stroke: #3b82f6"/>
    </defs>
    <g clip-path="url(#p41055fef44)">
     <use xlink:href="#m140a0e1834" x="58.291829" y="60.098182" style="fill: #3b82f6; stroke: #3b82f6"/>
    </g>
   </g>
   <g id="line2d_2">
    <defs>
     <path id="mc888e23d73" d="M 0 5 
C 1.326016 5 2.597899 4.473168 3.535534 3.535534 
C 4.473168 2.597899 5 1.326016 5 0 
C 5 -1.326016 4.473168 -2.597899 3.535534 -3.535534 
C 2.597899 -4.473168 1.326016 -5 0 -5 
C -1.326016 -5 -2.597899 -4.473168 -3.535534 -3.535534 
C -4.473168 -2.597899 -5 -1.326016 -5 0 
C -5 1.326016 -4.473168 2.597899 -3.535534 3.535534 
C -2.597899 4.473168 -1.326016 5 0 5 
z
" style="stroke: #f97316"/>
    </defs>
    <g clip-path="url(#p41055fef44)">
     <use xlink:href="#mc888e23d73" x="96.356641" y="150.861818" style="fill: #f97316; stroke: #f97316"/>
    </g>
   </g>
   <g id="line2d_3">
    <defs>
     <path id="m90cf5bffd1" d="M 0 5 
C 1.326016 5 2.597899 4.473168 3.535534 3.535534 
C 4.473168 2.597899 5 1.326016 5 0 
C 5 -1.326016 4.473168 -2.597899 3.535534 -3.535534 
C 2.597899 -4.473168 1.326016 -5 0 -5 
C -1.326016 -5 -2.597899 -4.473168 -3.535534 -3.535534 
C -4.473168 -2.597899 -5 -1.326016 -5 0 
C -5 1.326016 -4.473168 2.597899 -3.535534 3.535534 
C -2.597899 4.473168 -1.326016 5 0 5 
z
" style="stroke: #22c55e"/>
    </defs>
    <g clip-path="url(#p41055fef44)">
     <use xlink:href="#m90cf5bffd1" x="175.205181" y="37.407273" style="fill: #22c55e; stroke: #22c55e"/>
    </g>
   </g>
   <g id="line2d_4">
    <defs>
     <path id="mc0c30971ff" d="M 0 5 
C 1.326016 5 2.597899 4.473168 3.535534 3.535534 
C 4.473168 2.597899 5 1.326016 5 0 
C 5 -1.326016 4.473168 -2.597899 3.535534 -3.535534 
C 2.597899 -4.473168 1.326016 -5 0 -5 
C -1.326016 -5 -2.597899 -4.473168 -3.535534 -3.535534 
C -4.473168 -2.597899 -5 -1.326016 -5 0 
C -5 1.326016 -4.473168 2.597899 -3.535534 3.535534 
C -2.597899 4.473168 -1.326016 5 0 5 
z
" style="stroke: #a855f7"/>
    </defs>
    <g clip-path="url(#p41055fef44)">
     <use xlink:href="#mc0c30971ff" x="218.707824" y="173.552727" style="fill: #a855f7; stroke: #a855f7"/>
    </g>
   </g>
   <g id="line2d_5">
    <defs>
     <path id="m30464fe51a" d="M 0 5 
C 1.326016 5 2.597899 4.473168 3.535534 3.535534 
C 4.473168 2.597899 5 1.326016 5 0 
C 5 -1.326016 4.473168 -2.597899 3.535534 -3.535534 
C 2.597899 -4.473168 1.326016 -5 0 -5 
C -1.326016 -5 -2.597899 -4.473168 -3.535534 -3.535534 
C -4.473168 -2.597899 -5 -1.326016 -5 0 
C -5 1.326016 -4.473168 2.597899 -3.535534 3.535534 
C -2.597899 4.473168 -1.326016 5 0 5 
z
" style="stroke: #ef4444"/>
    </defs>
    <g clip-path="url(#p41055fef44)">
     <use xlink:href="#m30464fe51a" x="262.210467" y="60.098182" style="fill: #ef4444; stroke: #ef4444"/>
    </g>
   </g>
   <g id="line2d_6">
    <defs>
     <path id="m26afe4be46" d="M 0 5 
C 1.326016 5 2.597899 4.473168 3.535534 3.535534 
C 4.473168 2.597899 5 1.326016 5 0 
C 5 -1.326016 4.473168 -2.597899 3.535534 -3.535534 
C 2.597899 -4.473168 1.326016 -5 0 -5 
C -1.326016 -5 -2.597899 -4.473168 -3.535534 -3.535534 
C -4.473168 -2.597899 -5 -1.326016 -5 0 
C -5 1.326016 -4.473168 2.597899 -3.535534 3.535534 
C -2.597899 4.473168 -1.326016 5 0 5 
z
" style="stroke: #06b6d4"/>
    </defs>
    <g clip-path="url(#p41055fef44)">
     <use xlink:href="#m26afe4be46" x="800.555671" y="150.861818" style="fill: #06b6d4; stroke: #06b6d4"/>
    </g>
   </g>
   <g id="text_1">
    <g id="patch_2">
     <path d="M 17.434797 46.050142 
L 99.14886 46.050142 
Q 101.14886 46.050142 101.14886 44.050142 
L 101.14886 34.665767 
Q 101.14886 32.665767 99.14886 32.665767 
L 17.434797 32.665767 
Q 15.434797 32.665767 15.434797 34.665767 
L 15.434797 44.050142 
Q 15.434797 46.050142 17.434797 46.050142 
z
" style="fill: #1e293b; opacity: 0.9; stroke: #3b82f6; stroke-linejoin: miter"/>
    </g>
    <!-- Caja 13 Semanas -->
    <g style="fill: #ffffff" transform="translate(17.434797 41.945455) scale(0.1 -0.1)">
     <defs>
      <path id="Arial-BoldMT-43" d="M 3397 1684 
L 4294 1400 
Q 4088 650 3608 286 
Q 3128 -78 2391 -78 
Q 1478 -78 890 545 
Q 303 1169 303 2250 
Q 303 3394 893 4026 
Q 1484 4659 2447 4659 
Q 3288 4659 3813 4163 
Q 4125 3869 4281 3319 
L 3366 3100 
Q 3284 3456 3026 3662 
Q 2769 3869 2400 3869 
Q 1891 3869 1573 3503 
Q 1256 3138 1256 2319 
Q 1256 1450 1568 1081 
Q 1881 713 2381 713 
Q 2750 713 3015 947 
Q 3281 1181 3397 1684 
z
" transform="scale(0.015625)"/>
      <path id="Arial-BoldMT-61" d="M 1116 2306 
L 319 2450 
Q 453 2931 781 3162 
Q 1109 3394 1756 3394 
Q 2344 3394 2631 3255 
Q 2919 3116 3036 2902 
Q 3153 2688 3153 2116 
L 3144 1091 
Q 3144 653 3186 445 
Q 3228 238 3344 0 
L 2475 0 
Q 2441 88 2391 259 
Q 2369 338 2359 363 
Q 2134 144 1878 34 
Q 1622 -75 1331 -75 
Q 819 -75 523 203 
Q 228 481 228 906 
Q 228 1188 362 1408 
Q 497 1628 739 1745 
Q 981 1863 1438 1950 
Q 2053 2066 2291 2166 
L 2291 2253 
Q 2291 2506 2166 2614 
Q 2041 2722 1694 2722 
Q 1459 2722 1328 2630 
Q 1197 2538 1116 2306 
z
M 2291 1594 
Q 2122 1538 1756 1459 
Q 1391 1381 1278 1306 
Q 1106 1184 1106 997 
Q 1106 813 1243 678 
Q 1381 544 1594 544 
Q 1831 544 2047 700 
Q 2206 819 2256 991 
Q 2291 1103 2291 1419 
L 2291 1594 
z
" transform="scale(0.015625)"/>
      <path id="Arial-BoldMT-6a" d="M 441 3769 
L 441 4581 
L 1319 4581 
L 1319 3769 
L 441 3769 
z
M 1319 3319 
L 1319 103 
Q 1319 -531 1236 -792 
Q 1153 -1053 917 -1200 
Q 681 -1347 316 -1347 
Q 184 -1347 32 -1323 
Q -119 -1300 -294 -1253 
L -141 -503 
Q -78 -516 -23 -523 
Q 31 -531 78 -531 
Q 213 -531 298 -473 
Q 384 -416 412 -334 
Q 441 -253 441 153 
L 441 3319 
L 1319 3319 
z
" transform="scale(0.015625)"/>
      <path id="Arial-BoldMT-20" transform="scale(0.015625)"/>
      <path id="Arial-BoldMT-31" d="M 2519 0 
L 1641 0 
L 1641 3309 
Q 1159 2859 506 2644 
L 506 3441 
Q 850 3553 1253 3867 
Q 1656 4181 1806 4600 
L 2519 4600 
L 2519 0 
z
" transform="scale(0.015625)"/>
      <path id="Arial-BoldMT-33" d="M 241 1216 
L 1091 1319 
Q 1131 994 1309 822 
Q 1488 650 1741 650 
Q 2013 650 2198 856 
Q 2384 1063 2384 1413 
Q 2384 1744 2206 1937 
Q 2028 2131 1772 2131 
Q 1603 2131 1369 2066 
L 1466 2781 
Q 1822 2772 2009 2936 
Q 2197 3100 2197 3372 
Q 2197 3603 2059 3740 
Q 1922 3878 1694 3878 
Q 1469 3878 1309 3722 
Q 1150 3566 1116 3266 
L 306 3403 
Q 391 3819 561 4067 
Q 731 4316 1036 4458 
Q 1341 4600 1719 4600 
Q 2366 4600 2756 4188 
Q 3078 3850 3078 3425 
Q 3078 2822 2419 2463 
Q 2813 2378 3048 2084 
Q 3284 1791 3284 1375 
Q 3284 772 2843 347 
Q 2403 -78 1747 -78 
Q 1125 -78 715 280 
Q 306 638 241 1216 
z
" transform="scale(0.015625)"/>
      <path id="Arial-BoldMT-53" d="M 231 1491 
L 1131 1578 
Q 1213 1125 1461 912 
Q 1709 700 2131 700 
Q 2578 700 2804 889 
Q 3031 1078 3031 1331 
Q 3031 1494 2936 1608 
Q 2841 1722 2603 1806 
Q 2441 1863 1863 2006 
Q 1119 2191 819 2459 
Q 397 2838 397 3381 
Q 397 3731 595 4036 
Q 794 4341 1167 4500 
Q 1541 4659 2069 4659 
Q 2931 4659 3367 4281 
Q 3803 3903 3825 3272 
L 2900 3231 
Q 2841 3584 2645 3739 
Q 2450 3894 2059 3894 
Q 1656 3894 1428 3728 
Q 1281 3622 1281 3444 
Q 1281 3281 1419 3166 
Q 1594 3019 2269 2859 
Q 2944 2700 3267 2529 
Q 3591 2359 3773 2064 
Q 3956 1769 3956 1334 
Q 3956 941 3737 597 
Q 3519 253 3119 86 
Q 2719 -81 2122 -81 
Q 1253 -81 787 320 
Q 322 722 231 1491 
z
" transform="scale(0.015625)"/>
      <path id="Arial-BoldMT-65" d="M 2381 1056 
L 3256 909 
Q 3088 428 2723 176 
Q 2359 -75 1813 -75 
Q 947 -75 531 491 
Q 203 944 203 1634 
Q 203 2459 634 2926 
Q 1066 3394 1725 3394 
Q 2466 3394 2894 2905 
Q 3322 2416 3303 1406 
L 1103 1406 
Q 1113 1016 1316 798 
Q 1519 581 1822 581 
Q 2028 581 2168 693 
Q 2309 806 2381 1056 
z
M 2431 1944 
Q 2422 2325 2234 2523 
Q 2047 2722 1778 2722 
Q 1491 2722 1303 2513 
Q 1116 2303 1119 1944 
L 2431 1944 
z
" transform="scale(0.015625)"/>
      <path id="Arial-BoldMT-6d" d="M 394 3319 
L 1203 3319 
L 1203 2866 
Q 1638 3394 2238 3394 
Q 2556 3394 2790 3262 
Q 3025 3131 3175 2866 
Q 3394 3131 3647 3262 
Q 3900 3394 4188 3394 
Q 4553 3394 4806 3245 
Q 5059 3097 5184 2809 
Q 5275 2597 5275 2122 
L 5275 0 
L 4397 0 
L 4397 1897 
Q 4397 2391 4306 2534 
Q 4184 2722 3931 2722 
Q 3747 2722 3584 2609 
Q 3422 2497 3350 2280 
Q 3278 2063 3278 1594 
L 3278 0 
L 2400 0 
L 2400 1819 
Q 2400 2303 2353 2443 
Q 2306 2584 2207 2653 
Q 2109 2722 1941 2722 
Q 1738 2722 1575 2612 
Q 1413 2503 1342 2297 
Q 1272 2091 1272 1613 
L 1272 0 
L 394 0 
L 394 3319 
z
" transform="scale(0.015625)"/>
      <path id="Arial-BoldMT-6e" d="M 3478 0 
L 2600 0 
L 2600 1694 
Q 2600 2231 2544 2389 
Q 2488 2547 2361 2634 
Q 2234 2722 2056 2722 
Q 1828 2722 1647 2597 
Q 1466 2472 1398 2265 
Q 1331 2059 1331 1503 
L 1331 0 
L 453 0 
L 453 3319 
L 1269 3319 
L 1269 2831 
Q 1703 3394 2363 3394 
Q 2653 3394 2893 3289 
Q 3134 3184 3257 3021 
Q 3381 2859 3429 2653 
Q 3478 2447 3478 2063 
L 3478 0 
z
" transform="scale(0.015625)"/>
      <path id="Arial-BoldMT-73" d="M 150 947 
L 1031 1081 
Q 1088 825 1259 692 
Q 1431 559 1741 559 
Q 2081 559 2253 684 
Q 2369 772 2369 919 
Q 2369 1019 2306 1084 
Q 2241 1147 2013 1200 
Q 950 1434 666 1628 
Q 272 1897 272 2375 
Q 272 2806 612 3100 
Q 953 3394 1669 3394 
Q 2350 3394 2681 3172 
Q 3013 2950 3138 2516 
L 2309 2363 
Q 2256 2556 2107 2659 
Q 1959 2763 1684 2763 
Q 1338 2763 1188 2666 
Q 1088 2597 1088 2488 
Q 1088 2394 1175 2328 
Q 1294 2241 1995 2081 
Q 2697 1922 2975 1691 
Q 3250 1456 3250 1038 
Q 3250 581 2869 253 
Q 2488 -75 1741 -75 
Q 1063 -75 667 200 
Q 272 475 150 947 
z
" transform="scale(0.015625)"/>
     </defs>
     <use xlink:href="#Arial-BoldMT-43"/>
     <use xlink:href="#Arial-BoldMT-61" x="72.216797"/>
     <use xlink:href="#Arial-BoldMT-6a" x="127.832031"/>
     <use xlink:href="#Arial-BoldMT-61" x="155.615234"/>
     <use xlink:href="#Arial-BoldMT-20" x="211.230469"/>
     <use xlink:href="#Arial-BoldMT-31" x="239.013672"/>
     <use xlink:href="#Arial-BoldMT-33" x="294.628906"/>
     <use xlink:href="#Arial-BoldMT-20" x="350.244141"/>
     <use xlink:href="#Arial-BoldMT-53" x="378.027344"/>
     <use xlink:href="#Arial-BoldMT-65" x="444.726562"/>
     <use xlink:href="#Arial-BoldMT-6d" x="500.341797"/>
     <use xlink:href="#Arial-BoldMT-61" x="589.257812"/>
     <use xlink:href="#Arial-BoldMT-6e" x="644.873047"/>
     <use xlink:href="#Arial-BoldMT-61" x="705.957031"/>
     <use xlink:href="#Arial-BoldMT-73" x="761.572266"/>
    </g>
   </g>
   <g id="text_2">
    <g id="patch_3">
     <path d="M 59.680078 182.064347 
L 133.033203 182.064347 
Q 135.033203 182.064347 135.033203 180.064347 
L 135.033203 170.933097 
Q 135.033203 168.933097 133.033203 168.933097 
L 59.680078 168.933097 
Q 57.680078 168.933097 57.680078 170.933097 
L 57.680078 180.064347 
Q 57.680078 182.064347 59.680078 182.064347 
z
" style="fill: #1e293b; opacity: 0.9; stroke: #f97316; stroke-linejoin: miter"/>
    </g>
    <!-- Estándar HSEC -->
    <g style="fill: #ffffff" transform="translate(59.680078 178.090909) scale(0.1 -0.1)">
     <defs>
      <path id="Arial-BoldMT-45" d="M 466 0 
L 466 4581 
L 3863 4581 
L 3863 3806 
L 1391 3806 
L 1391 2791 
L 3691 2791 
L 3691 2019 
L 1391 2019 
L 1391 772 
L 3950 772 
L 3950 0 
L 466 0 
z
" transform="scale(0.015625)"/>
      <path id="Arial-BoldMT-74" d="M 1981 3319 
L 1981 2619 
L 1381 2619 
L 1381 1281 
Q 1381 875 1398 808 
Q 1416 741 1477 697 
Q 1538 653 1625 653 
Q 1747 653 1978 738 
L 2053 56 
Q 1747 -75 1359 -75 
Q 1122 -75 931 4 
Q 741 84 652 211 
Q 563 338 528 553 
Q 500 706 500 1172 
L 500 2619 
L 97 2619 
L 97 3319 
L 500 3319 
L 500 3978 
L 1381 4491 
L 1381 3319 
L 1981 3319 
z
" transform="scale(0.015625)"/>
      <path id="Arial-BoldMT-e1" d="M 1116 2306 
L 319 2450 
Q 453 2931 781 3162 
Q 1109 3394 1756 3394 
Q 2344 3394 2631 3255 
Q 2919 3116 3036 2902 
Q 3153 2688 3153 2116 
L 3144 1091 
Q 3144 653 3186 445 
Q 3228 238 3344 0 
L 2475 0 
Q 2441 88 2391 259 
Q 2369 338 2359 363 
Q 2134 144 1878 34 
Q 1622 -75 1331 -75 
Q 819 -75 523 203 
Q 228 481 228 906 
Q 228 1188 362 1408 
Q 497 1628 739 1745 
Q 981 1863 1438 1950 
Q 2053 2066 2291 2166 
L 2291 2253 
Q 2291 2506 2166 2614 
Q 2041 2722 1694 2722 
Q 1459 2722 1328 2630 
Q 1197 2538 1116 2306 
z
M 2291 1594 
Q 2122 1538 1756 1459 
Q 1391 1381 1278 1306 
Q 1106 1184 1106 997 
Q 1106 813 1243 678 
Q 1381 544 1594 544 
Q 1831 544 2047 700 
Q 2206 819 2256 991 
Q 2291 1103 2291 1419 
L 2291 1594 
z
M 1344 3725 
L 1776 4659 
L 2760 4659 
L 1901 3725 
L 1344 3725 
z
" transform="scale(0.015625)"/>
      <path id="Arial-BoldMT-64" d="M 3503 0 
L 2688 0 
L 2688 488 
Q 2484 203 2207 64 
Q 1931 -75 1650 -75 
Q 1078 -75 670 386 
Q 263 847 263 1672 
Q 263 2516 659 2955 
Q 1056 3394 1663 3394 
Q 2219 3394 2625 2931 
L 2625 4581 
L 3503 4581 
L 3503 0 
z
M 1159 1731 
Q 1159 1200 1306 963 
Q 1519 619 1900 619 
Q 2203 619 2415 876 
Q 2628 1134 2628 1647 
Q 2628 2219 2422 2470 
Q 2216 2722 1894 2722 
Q 1581 2722 1370 2473 
Q 1159 2225 1159 1731 
z
" transform="scale(0.015625)"/>
      <path id="Arial-BoldMT-72" d="M 1300 0 
L 422 0 
L 422 3319 
L 1238 3319 
L 1238 2847 
Q 1447 3181 1614 3287 
Q 1781 3394 1994 3394 
Q 2294 3394 2572 3228 
L 2300 2463 
Q 2078 2606 1888 2606 
Q 1703 2606 1575 2504 
Q 1447 2403 1373 2137 
Q 1300 1872 1300 1025 
L 1300 0 
z
" transform="scale(0.015625)"/>
      <path id="Arial-BoldMT-48" d="M 469 0 
L 469 4581 
L 1394 4581 
L 1394 2778 
L 3206 2778 
L 3206 4581 
L 4131 4581 
L 4131 0 
L 3206 0 
L 3206 2003 
L 1394 2003 
L 1394 0 
L 469 0 
z
" transform="scale(0.015625)"/>
     </defs>
     <use xlink:href="#Arial-BoldMT-45"/>
     <use xlink:href="#Arial-BoldMT-73" x="66.699219"/>
     <use xlink:href="#Arial-BoldMT-74" x="122.314453"/>
     <use xlink:href="#Arial-BoldMT-e1" x="155.615234"/>
     <use xlink:href="#Arial-BoldMT-6e" x="211.230469"/>
     <use xlink:href="#Arial-BoldMT-64" x="272.314453"/>
     <use xlink:href="#Arial-BoldMT-61" x="333.398438"/>
     <use xlink:href="#Arial-BoldMT-72" x="389.013672"/>
     <use xlink:href="#Arial-BoldMT-20" x="427.929688"/>
     <use xlink:href="#Arial-BoldMT-48" x="455.712891"/>
     <use xlink:href="#Arial-BoldMT-53" x="527.929688"/>
     <use xlink:href="#Arial-BoldMT-45" x="594.628906"/>
     <use xlink:href="#Arial-BoldMT-43" x="661.328125"/>
    </g>
   </g>
   <g id="text_3">
    <g id="patch_4">
     <path d="M 130.467681 23.227983 
L 219.942681 23.227983 
Q 221.942681 23.227983 221.942681 21.227983 
L 221.942681 12.096733 
Q 221.942681 10.096733 219.942681 10.096733 
L 130.467681 10.096733 
Q 128.467681 10.096733 128.467681 12.096733 
L 128.467681 21.227983 
Q 128.467681 23.227983 130.467681 23.227983 
z
" style="fill: #1e293b; opacity: 0.9; stroke: #22c55e; stroke-linejoin: miter"/>
    </g>
    <!-- Director Comercial -->
    <g style="fill: #ffffff" transform="translate(130.467681 19.254545) scale(0.1 -0.1)">
     <defs>
      <path id="Arial-BoldMT-44" d="M 463 4581 
L 2153 4581 
Q 2725 4581 3025 4494 
Q 3428 4375 3715 4072 
Q 4003 3769 4153 3330 
Q 4303 2891 4303 2247 
Q 4303 1681 4163 1272 
Q 3991 772 3672 463 
Q 3431 228 3022 97 
Q 2716 0 2203 0 
L 463 0 
L 463 4581 
z
M 1388 3806 
L 1388 772 
L 2078 772 
Q 2466 772 2638 816 
Q 2863 872 3011 1006 
Q 3159 1141 3253 1448 
Q 3347 1756 3347 2288 
Q 3347 2819 3253 3103 
Q 3159 3388 2990 3547 
Q 2822 3706 2563 3763 
Q 2369 3806 1803 3806 
L 1388 3806 
z
" transform="scale(0.015625)"/>
      <path id="Arial-BoldMT-69" d="M 459 3769 
L 459 4581 
L 1338 4581 
L 1338 3769 
L 459 3769 
z
M 459 0 
L 459 3319 
L 1338 3319 
L 1338 0 
L 459 0 
z
" transform="scale(0.015625)"/>
      <path id="Arial-BoldMT-63" d="M 3353 2338 
L 2488 2181 
Q 2444 2441 2289 2572 
Q 2134 2703 1888 2703 
Q 1559 2703 1364 2476 
Q 1169 2250 1169 1719 
Q 1169 1128 1367 884 
Q 1566 641 1900 641 
Q 2150 641 2309 783 
Q 2469 925 2534 1272 
L 3397 1125 
Q 3263 531 2881 228 
Q 2500 -75 1859 -75 
Q 1131 -75 698 384 
Q 266 844 266 1656 
Q 266 2478 700 2936 
Q 1134 3394 1875 3394 
Q 2481 3394 2839 3133 
Q 3197 2872 3353 2338 
z
" transform="scale(0.015625)"/>
      <path id="Arial-BoldMT-6f" d="M 256 1706 
Q 256 2144 472 2553 
Q 688 2963 1083 3178 
Q 1478 3394 1966 3394 
Q 2719 3394 3200 2905 
Q 3681 2416 3681 1669 
Q 3681 916 3195 420 
Q 2709 -75 1972 -75 
Q 1516 -75 1102 131 
Q 688 338 472 736 
Q 256 1134 256 1706 
z
M 1156 1659 
Q 1156 1166 1390 903 
Q 1625 641 1969 641 
Q 2313 641 2545 903 
Q 2778 1166 2778 1666 
Q 2778 2153 2545 2415 
Q 2313 2678 1969 2678 
Q 1625 2678 1390 2415 
Q 1156 2153 1156 1659 
z
" transform="scale(0.015625)"/>
      <path id="Arial-BoldMT-6c" d="M 459 0 
L 459 4581 
L 1338 4581 
L 1338 0 
L 459 0 
z
" transform="scale(0.015625)"/>
     </defs>
     <use xlink:href="#Arial-BoldMT-44"/>
     <use xlink:href="#Arial-BoldMT-69" x="72.216797"/>
     <use xlink:href="#Arial-BoldMT-72" x="100"/>
     <use xlink:href="#Arial-BoldMT-65" x="138.916016"/>
     <use xlink:href="#Arial-BoldMT-63" x="194.53125"/>
     <use xlink:href="#Arial-BoldMT-74" x="250.146484"/>
     <use xlink:href="#Arial-BoldMT-6f" x="283.447266"/>
     <use xlink:href="#Arial-BoldMT-72" x="344.53125"/>
     <use xlink:href="#Arial-BoldMT-20" x="383.447266"/>
     <use xlink:href="#Arial-BoldMT-43" x="411.230469"/>
     <use xlink:href="#Arial-BoldMT-6f" x="483.447266"/>
     <use xlink:href="#Arial-BoldMT-6d" x="544.53125"/>
     <use xlink:href="#Arial-BoldMT-65" x="633.447266"/>
     <use xlink:href="#Arial-BoldMT-72" x="689.0625"/>
     <use xlink:href="#Arial-BoldMT-63" x="727.978516"/>
     <use xlink:href="#Arial-BoldMT-69" x="783.59375"/>
     <use xlink:href="#Arial-BoldMT-61" x="811.376953"/>
     <use xlink:href="#Arial-BoldMT-6c" x="866.992188"/>
    </g>
   </g>
   <g id="text_4">
    <g id="patch_5">
     <path d="M 187.300793 204.755256 
L 250.114855 204.755256 
Q 252.114855 204.755256 252.114855 202.755256 
L 252.114855 193.624006 
Q 252.114855 191.624006 250.114855 191.624006 
L 187.300793 191.624006 
Q 185.300793 191.624006 185.300793 193.624006 
L 185.300793 202.755256 
Q 185.300793 204.755256 187.300793 204.755256 
z
" style="fill: #1e293b; opacity: 0.9; stroke: #a855f7; stroke-linejoin: miter"/>
    </g>
    <!-- Data Pack V1 -->
    <g style="fill: #ffffff" transform="translate(187.300793 200.781818) scale(0.1 -0.1)">
     <defs>
      <path id="Arial-BoldMT-50" d="M 466 0 
L 466 4581 
L 1950 4581 
Q 2794 4581 3050 4513 
Q 3444 4409 3709 4064 
Q 3975 3719 3975 3172 
Q 3975 2750 3822 2462 
Q 3669 2175 3433 2011 
Q 3197 1847 2953 1794 
Q 2622 1728 1994 1728 
L 1391 1728 
L 1391 0 
L 466 0 
z
M 1391 3806 
L 1391 2506 
L 1897 2506 
Q 2444 2506 2628 2578 
Q 2813 2650 2917 2803 
Q 3022 2956 3022 3159 
Q 3022 3409 2875 3571 
Q 2728 3734 2503 3775 
Q 2338 3806 1838 3806 
L 1391 3806 
z
" transform="scale(0.015625)"/>
      <path id="Arial-BoldMT-6b" d="M 428 0 
L 428 4581 
L 1306 4581 
L 1306 2150 
L 2334 3319 
L 3416 3319 
L 2281 2106 
L 3497 0 
L 2550 0 
L 1716 1491 
L 1306 1063 
L 1306 0 
L 428 0 
z
" transform="scale(0.015625)"/>
      <path id="Arial-BoldMT-56" d="M 1634 0 
L -3 4581 
L 1000 4581 
L 2159 1191 
L 3281 4581 
L 4263 4581 
L 2622 0 
L 1634 0 
z
" transform="scale(0.015625)"/>
     </defs>
     <use xlink:href="#Arial-BoldMT-44"/>
     <use xlink:href="#Arial-BoldMT-61" x="72.216797"/>
     <use xlink:href="#Arial-BoldMT-74" x="127.832031"/>
     <use xlink:href="#Arial-BoldMT-61" x="161.132812"/>
     <use xlink:href="#Arial-BoldMT-20" x="216.748047"/>
     <use xlink:href="#Arial-BoldMT-50" x="244.53125"/>
     <use xlink:href="#Arial-BoldMT-61" x="311.230469"/>
     <use xlink:href="#Arial-BoldMT-63" x="366.845703"/>
     <use xlink:href="#Arial-BoldMT-6b" x="422.460938"/>
     <use xlink:href="#Arial-BoldMT-20" x="478.076172"/>
     <use xlink:href="#Arial-BoldMT-56" x="505.859375"/>
     <use xlink:href="#Arial-BoldMT-31" x="572.558594"/>
    </g>
   </g>
   <g id="text_5">
    <g id="patch_6">
     <path d="M 224.698748 45.918892 
L 299.722185 45.918892 
Q 301.722185 45.918892 301.722185 43.918892 
L 301.722185 34.787642 
Q 301.722185 32.787642 299.722185 32.787642 
L 224.698748 32.787642 
Q 222.698748 32.787642 222.698748 34.787642 
L 222.698748 43.918892 
Q 222.698748 45.918892 224.698748 45.918892 
z
" style="fill: #1e293b; opacity: 0.9; stroke: #ef4444; stroke-linejoin: miter"/>
    </g>
    <!-- Oferta Premium -->
    <g style="fill: #ffffff" transform="translate(224.698748 41.945455) scale(0.1 -0.1)">
     <defs>
      <path id="Arial-BoldMT-4f" d="M 278 2263 
Q 278 2963 488 3438 
Q 644 3788 914 4066 
Q 1184 4344 1506 4478 
Q 1934 4659 2494 4659 
Q 3506 4659 4114 4031 
Q 4722 3403 4722 2284 
Q 4722 1175 4119 548 
Q 3516 -78 2506 -78 
Q 1484 -78 881 545 
Q 278 1169 278 2263 
z
M 1231 2294 
Q 1231 1516 1590 1114 
Q 1950 713 2503 713 
Q 3056 713 3411 1111 
Q 3766 1509 3766 2306 
Q 3766 3094 3420 3481 
Q 3075 3869 2503 3869 
Q 1931 3869 1581 3476 
Q 1231 3084 1231 2294 
z
" transform="scale(0.015625)"/>
      <path id="Arial-BoldMT-66" d="M 75 3319 
L 563 3319 
L 563 3569 
Q 563 3988 652 4194 
Q 741 4400 980 4529 
Q 1219 4659 1584 4659 
Q 1959 4659 2319 4547 
L 2200 3934 
Q 1991 3984 1797 3984 
Q 1606 3984 1523 3895 
Q 1441 3806 1441 3553 
L 1441 3319 
L 2097 3319 
L 2097 2628 
L 1441 2628 
L 1441 0 
L 563 0 
L 563 2628 
L 75 2628 
L 75 3319 
z
" transform="scale(0.015625)"/>
      <path id="Arial-BoldMT-75" d="M 2644 0 
L 2644 497 
Q 2463 231 2167 78 
Q 1872 -75 1544 -75 
Q 1209 -75 943 72 
Q 678 219 559 484 
Q 441 750 441 1219 
L 441 3319 
L 1319 3319 
L 1319 1794 
Q 1319 1094 1367 936 
Q 1416 778 1544 686 
Q 1672 594 1869 594 
Q 2094 594 2272 717 
Q 2450 841 2515 1023 
Q 2581 1206 2581 1919 
L 2581 3319 
L 3459 3319 
L 3459 0 
L 2644 0 
z
" transform="scale(0.015625)"/>
     </defs>
     <use xlink:href="#Arial-BoldMT-4f"/>
     <use xlink:href="#Arial-BoldMT-66" x="77.783203"/>
     <use xlink:href="#Arial-BoldMT-65" x="111.083984"/>
     <use xlink:href="#Arial-BoldMT-72" x="166.699219"/>
     <use xlink:href="#Arial-BoldMT-74" x="205.615234"/>
     <use xlink:href="#Arial-BoldMT-61" x="238.916016"/>
     <use xlink:href="#Arial-BoldMT-20" x="294.53125"/>
     <use xlink:href="#Arial-BoldMT-50" x="322.314453"/>
     <use xlink:href="#Arial-BoldMT-72" x="389.013672"/>
     <use xlink:href="#Arial-BoldMT-65" x="427.929688"/>
     <use xlink:href="#Arial-BoldMT-6d" x="483.544922"/>
     <use xlink:href="#Arial-BoldMT-69" x="572.460938"/>
     <use xlink:href="#Arial-BoldMT-75" x="600.244141"/>
     <use xlink:href="#Arial-BoldMT-6d" x="661.328125"/>
    </g>
   </g>
   <g id="text_6">
    <g id="patch_7">
     <path d="M 754.444734 182.064347 
L 846.666609 182.064347 
Q 848.666609 182.064347 848.666609 180.064347 
L 848.666609 170.933097 
Q 848.666609 168.933097 846.666609 168.933097 
L 754.444734 168.933097 
Q 752.444734 168.933097 752.444734 170.933097 
L 752.444734 180.064347 
Q 752.444734 182.064347 754.444734 182.064347 
z
" style="fill: #1e293b; opacity: 0.9; stroke: #06b6d4; stroke-linejoin: miter"/>
    </g>
    <!-- Roadmap Producto -->
    <g style="fill: #ffffff" transform="translate(754.444734 178.090909) scale(0.1 -0.1)">
     <defs>
      <path id="Arial-BoldMT-52" d="M 469 0 
L 469 4581 
L 2416 4581 
Q 3150 4581 3483 4457 
Q 3816 4334 4016 4018 
Q 4216 3703 4216 3297 
Q 4216 2781 3912 2445 
Q 3609 2109 3006 2022 
Q 3306 1847 3501 1637 
Q 3697 1428 4028 894 
L 4588 0 
L 3481 0 
L 2813 997 
Q 2456 1531 2325 1670 
Q 2194 1809 2047 1861 
Q 1900 1913 1581 1913 
L 1394 1913 
L 1394 0 
L 469 0 
z
M 1394 2644 
L 2078 2644 
Q 2744 2644 2909 2700 
Q 3075 2756 3169 2893 
Q 3263 3031 3263 3238 
Q 3263 3469 3139 3611 
Q 3016 3753 2791 3791 
Q 2678 3806 2116 3806 
L 1394 3806 
L 1394 2644 
z
" transform="scale(0.015625)"/>
      <path id="Arial-BoldMT-70" d="M 434 3319 
L 1253 3319 
L 1253 2831 
Q 1413 3081 1684 3237 
Q 1956 3394 2288 3394 
Q 2866 3394 3269 2941 
Q 3672 2488 3672 1678 
Q 3672 847 3265 386 
Q 2859 -75 2281 -75 
Q 2006 -75 1782 34 
Q 1559 144 1313 409 
L 1313 -1263 
L 434 -1263 
L 434 3319 
z
M 1303 1716 
Q 1303 1156 1525 889 
Q 1747 622 2066 622 
Q 2372 622 2575 867 
Q 2778 1113 2778 1672 
Q 2778 2194 2568 2447 
Q 2359 2700 2050 2700 
Q 1728 2700 1515 2451 
Q 1303 2203 1303 1716 
z
" transform="scale(0.015625)"/>
     </defs>
     <use xlink:href="#Arial-BoldMT-52"/>
     <use xlink:href="#Arial-BoldMT-6f" x="72.216797"/>
     <use xlink:href="#Arial-BoldMT-61" x="133.300781"/>
     <use xlink:href="#Arial-BoldMT-64" x="188.916016"/>
     <use xlink:href="#Arial-BoldMT-6d" x="250"/>
     <use xlink:href="#Arial-BoldMT-61" x="338.916016"/>
     <use xlink:href="#Arial-BoldMT-70" x="394.53125"/>
     <use xlink:href="#Arial-BoldMT-20" x="455.615234"/>
     <use xlink:href="#Arial-BoldMT-50" x="483.398438"/>
     <use xlink:href="#Arial-BoldMT-72" x="550.097656"/>
     <use xlink:href="#Arial-BoldMT-6f" x="589.013672"/>
     <use xlink:href="#Arial-BoldMT-64" x="650.097656"/>
     <use xlink:href="#Arial-BoldMT-75" x="711.181641"/>
     <use xlink:href="#Arial-BoldMT-63" x="772.265625"/>
     <use xlink:href="#Arial-BoldMT-74" x="827.880859"/>
     <use xlink:href="#Arial-BoldMT-6f" x="861.181641"/>
    </g>
   </g>
  </g>
 </g>
 <defs>
  <clipPath id="p41055fef44">
   <rect x="21.178636" y="30.6" width="816.490227" height="149.76"/>
  </clipPath>
 </defs>
</svg>
